<svg data-v-423bf9ae="" xmlns="http://www.w3.org/2000/svg" viewBox="0 0 452 90" class="iconLeft"><!----><!----><!----><g data-v-423bf9ae="" id="caa18e6d-223e-4bea-8125-a7dfc2ac83f8" fill="black" transform="matrix(5.8365760270947415,0,0,5.8365760270947415,104.74708035834666,-6.245136158813153)"><path d="M4.91 13.75L3.71 13.75L3.71 5.11L0.90 5.11L0.90 3.95L7.73 3.95L7.73 5.11L4.91 5.11L4.91 13.75ZM16.07 9.86L16.07 9.86L16.07 9.86Q16.07 10.32 16.03 10.64L16.03 10.64L11.03 10.64L11.03 10.64Q11.17 11.68 11.71 12.26L11.71 12.26L11.71 12.26Q12.25 12.84 13.12 12.84L13.12 12.84L13.12 12.84Q14.03 12.84 14.78 12.22L14.78 12.22L15.46 13.01L15.46 13.01Q14.45 13.92 13.08 13.92L13.08 13.92L13.08 13.92Q11.58 13.92 10.69 12.85L10.69 12.85L10.69 12.85Q9.80 11.79 9.80 10.16L9.80 10.16L9.80 10.16Q9.80 8.41 10.69 7.42L10.69 7.42L10.69 7.42Q11.58 6.43 13.08 6.43L13.08 6.43L13.08 6.43Q14.39 6.43 15.23 7.29L15.23 7.29L15.23 7.29Q16.07 8.16 16.07 9.86ZM11.00 9.60L11.00 9.60L14.88 9.60L14.88 9.60Q14.85 8.47 14.32 7.98L14.32 7.98L14.32 7.98Q13.79 7.49 13.08 7.49L13.08 7.49L13.08 7.49Q12.12 7.49 11.60 8.05L11.60 8.05L11.60 8.05Q11.07 8.61 11.00 9.60ZM21.71 13.92L21.71 13.92L21.71 13.92Q20.31 13.92 19.50 12.93L19.50 12.93L19.50 12.93Q18.69 11.94 18.69 10.18L18.69 10.18L18.69 10.18Q18.69 8.41 19.52 7.42L19.52 7.42L19.52 7.42Q20.34 6.43 21.80 6.43L21.80 6.43L21.80 6.43Q23.74 6.43 24.37 8.08L24.37 8.08L23.27 8.48L23.27 8.48Q22.85 7.52 21.78 7.52L21.78 7.52L21.78 7.52Q20.83 7.52 20.37 8.22L20.37 8.22L20.37 8.22Q19.91 8.92 19.91 10.18L19.91 10.18L19.91 10.18Q19.91 11.44 20.37 12.12L20.37 12.12L20.37 12.12Q20.83 12.81 21.76 12.81L21.76 12.81L21.76 12.81Q22.97 12.81 23.35 11.73L23.35 11.73L24.44 12.12L24.44 12.12Q24.16 12.98 23.45 13.45L23.45 13.45L23.45 13.45Q22.74 13.92 21.71 13.92ZM28.48 13.75L27.29 13.75L27.29 4.20L28.48 3.64L28.48 7.36L28.48 7.36Q29.15 6.43 30.45 6.43L30.45 6.43L30.45 6.43Q31.75 6.43 32.42 7.20L32.42 7.20L32.42 7.20Q33.10 7.97 33.10 9.65L33.10 9.65L33.10 13.75L31.91 13.75L31.91 9.49L31.91 9.49Q31.91 8.47 31.45 7.99L31.45 7.99L31.45 7.99Q31.00 7.52 30.24 7.52L30.24 7.52L30.24 7.52Q28.48 7.52 28.48 9.46L28.48 9.46L28.48 13.75ZM41.71 13.75L35.84 13.75L35.84 3.95L37.04 3.95L37.04 12.59L41.71 12.59L41.71 13.75ZM46.96 13.92L46.96 13.92L46.96 13.92Q45.79 13.92 45.09 13.29L45.09 13.29L45.09 13.29Q44.39 12.67 44.39 11.51L44.39 11.51L44.39 11.51Q44.39 10.35 45.19 9.74L45.19 9.74L45.19 9.74Q45.98 9.14 47.14 9.14L47.14 9.14L47.14 9.14Q48.20 9.14 49.07 9.60L49.07 9.60L49.07 9.06L49.07 9.06Q49.07 7.46 47.56 7.46L47.56 7.46L47.56 7.46Q46.45 7.46 45.29 8.22L45.29 8.22L44.94 7.22L44.94 7.22Q46.23 6.43 47.67 6.43L47.67 6.43L47.67 6.43Q48.13 6.43 48.54 6.53L48.54 6.53L48.54 6.53Q48.94 6.64 49.34 6.90L49.34 6.90L49.34 6.90Q49.74 7.15 49.97 7.69L49.97 7.69L49.97 7.69Q50.20 8.22 50.20 8.97L50.20 8.97L50.20 13.75L49.07 13.75L49.07 13.09L49.07 13.09Q48.17 13.92 46.96 13.92ZM47.11 12.88L47.11 12.88L47.11 12.88Q48.23 12.88 49.07 11.90L49.07 11.90L49.07 10.67L49.07 10.67Q48.24 10.16 47.28 10.16L47.28 10.16L47.28 10.16Q46.52 10.16 46.02 10.51L46.02 10.51L46.02 10.51Q45.51 10.85 45.51 11.51L45.51 11.51L45.51 11.51Q45.51 12.12 45.93 12.50L45.93 12.50L45.93 12.50Q46.35 12.88 47.11 12.88ZM56.36 13.92L56.36 13.92L56.36 13.92Q55.22 13.92 54.38 13.13L54.38 13.13L54.38 13.75L53.19 13.75L53.19 4.21L54.38 3.64L54.38 7.25L54.38 7.25Q54.71 6.87 55.23 6.65L55.23 6.65L55.23 6.65Q55.75 6.43 56.32 6.43L56.32 6.43L56.32 6.43Q57.71 6.43 58.53 7.43L58.53 7.43L58.53 7.43Q59.36 8.43 59.36 10.16L59.36 10.16L59.36 10.16Q59.36 11.97 58.57 12.94L58.57 12.94L58.57 12.94Q57.78 13.92 56.36 13.92ZM56.18 12.81L56.18 12.81L56.18 12.81Q57.15 12.81 57.65 12.11L57.65 12.11L57.65 12.11Q58.14 11.41 58.14 10.16L58.14 10.16L58.14 10.16Q58.14 8.88 57.65 8.20L57.65 8.20L57.65 8.20Q57.15 7.52 56.18 7.52L56.18 7.52L56.18 7.52Q55.57 7.52 55.08 7.82L55.08 7.82L55.08 7.82Q54.60 8.12 54.38 8.48L54.38 8.48L54.38 11.83L54.38 11.83Q54.66 12.29 55.13 12.55L55.13 12.55L55.13 12.55Q55.61 12.81 56.18 12.81Z"></path></g><!----><g data-v-423bf9ae="" id="fbd874fd-4001-4755-a8f0-90abecd3cacf" transform="matrix(2.8125,0,0,2.8125,0,0)" stroke="none" fill="black"><path d="M0 32h32V0H0v32zM2.038 2.038h27.923v27.923H2.038V2.038z"></path><path d="M4.038 27.962h23.923V4.038H4.038v23.924zM21.049 8.25h3.402v3.402h-3.402V8.25zm0 6.049h3.402v3.402h-3.402v-3.402zm0 6.049h3.402v3.402h-3.402v-3.402zM14.299 8.25h3.402v3.402h-3.402V8.25zm0 6.049h3.402v3.402h-3.402v-3.402zm0 6.049h3.402v3.402h-3.402v-3.402zM7.549 8.25h3.402v3.402H7.549V8.25zm0 6.049h3.402v3.402H7.549v-3.402zm0 6.049h3.402v3.402H7.549v-3.402z"></path></g><!----></svg>